<svg version="1.2" xmlns="http://www.w3.org/2000/svg" viewBox="0 0 960 960" width="960" height="960">
	<title>shopping_bag_FILL0_wght400_GRAD0_opsz24-svg</title>
	<style>
		.s0 { fill: #ffffff } 
	</style>
	<path id="Layer" fill-rule="evenodd" class="s0" d="m240 880q-33 0-56.5-23.5-23.5-23.5-23.5-56.5v-480q0-33 23.5-56.5 23.5-23.5 56.5-23.5h80q0-66 47-113 47-47 113-47 66 0 113 47 47 47 47 113h80q33 0 56.5 23.5 23.5 23.5 23.5 56.5v480q0 33-23.5 56.5-23.5 23.5-56.5 23.5zm0-80h480v-480h-80v80q0 17-11.5 28.5-11.5 11.5-28.5 11.5-17 0-28.5-11.5-11.5-11.5-11.5-28.5v-80h-160v80q0 17-11.5 28.5-11.5 11.5-28.5 11.5-17 0-28.5-11.5-11.5-11.5-11.5-28.5v-80h-80zm160-560h160q0-33-23.5-56.5-23.5-23.5-56.5-23.5-33 0-56.5 23.5-23.5 23.5-23.5 56.5zm-160 560v-480z"/>
</svg>